<?xml version="1.0" standalone="no"?><!DOCTYPE svg PUBLIC "-//W3C//DTD SVG 1.1//EN" "http://www.w3.org/Graphics/SVG/1.1/DTD/svg11.dtd"><svg t="1753155334309" class="icon" viewBox="0 0 1024 1024" version="1.1" xmlns="http://www.w3.org/2000/svg" p-id="13959" xmlns:xlink="http://www.w3.org/1999/xlink" width="16" height="16"><path d="M695.43185 397.61204H183.267648l249.051824-221.380751c12.053641-10.715699 13.136158-29.167136 2.420458-41.220777s-29.167136-13.148321-41.220777-2.420459L88.298091 403.876041c-6.774852 5.351768-11.129245 13.622682-11.129245 22.927461v0.072978c0 0.462198 0.012163 0.924396 0.03649 1.386595v0.048652a29.191462 29.191462 0 0 0 9.766976 20.397534l306.546841 272.477972c5.558541 4.950385 12.491513 7.370844 19.387996 7.370845 8.051978 0 16.067467-3.308366 21.832781-9.803466 10.715699-12.053641 9.633182-30.517241-2.420458-41.220777L183.097364 456.007127h512.334486c106.269085 0 192.736628 86.467543 192.736628 192.736628s-86.45538 192.736628-192.736628 192.736628H358.708335c-16.128283 0-29.203625 13.075342-29.203625 29.203626 0 16.128283 13.075342 29.203625 29.203625 29.203625h336.723515c138.476998 0 251.143879-112.66688 251.143878-251.143879-0.012163-138.476998-112.66688-251.131716-251.143878-251.131715z m0 0" p-id="13960" fill="#000000"></path></svg>