<?xml version="1.0" standalone="no"?><!DOCTYPE svg PUBLIC "-//W3C//DTD SVG 1.1//EN" "http://www.w3.org/Graphics/SVG/1.1/DTD/svg11.dtd"><svg t="1753155144018" class="icon" viewBox="0 0 1024 1024" version="1.1" xmlns="http://www.w3.org/2000/svg" p-id="11085" xmlns:xlink="http://www.w3.org/1999/xlink" width="16" height="16"><path d="M601.633881 511.653483l403.415654-403.416677c24.790597-24.748642 24.790597-64.926683 0-89.675325-24.706686-24.748642-64.885751-24.748642-89.592438 0l-403.457609 403.458633L108.542903 18.562505c-24.706686-24.748642-64.885751-24.748642-89.592438 0-24.789574 24.748642-24.789574 64.926683 0 89.675325L422.366119 511.653483 18.950465 915.07016c-24.789574 24.748642-24.789574 64.927706 0 89.676348 24.706686 24.748642 64.885751 24.748642 89.592438 0l403.457609-403.458632 403.457609 403.458632c24.706686 24.748642 64.885751 24.748642 89.592437 0 24.790597-24.748642 24.790597-64.927706 0-89.676348L601.633881 511.653483z" fill="#000000" p-id="11086"></path></svg>