<?xml version="1.0" standalone="no"?>
<!DOCTYPE svg PUBLIC "-//W3C//DTD SVG 1.1//EN" "http://www.w3.org/Graphics/SVG/1.1/DTD/svg11.dtd">
<svg t="1750907048947" class="icon" viewBox="0 0 1024 1024" version="1.1" xmlns="http://www.w3.org/2000/svg" p-id="5077" width="16" height="16" xmlns:xlink="http://www.w3.org/1999/xlink">
    <path d="M256 51.2v153.6a51.2 51.2 0 0 1-51.2 51.2H51.2a51.2 51.2 0 1 0 0 102.4h153.6c84.8256 0 153.6-68.7744 153.6-153.6V51.2a51.2 51.2 0 1 0-102.4 0z m716.8 204.8H819.2a51.2 51.2 0 0 1-51.2-51.2V51.2a51.2 51.2 0 1 0-102.4 0v153.6c0 84.8256 68.7744 153.6 153.6 153.6h153.6a51.2 51.2 0 1 0 0-102.4zM768 972.8V819.2a51.2 51.2 0 0 1 51.2-51.2h153.6a51.2 51.2 0 1 0 0-102.4H819.2c-84.8256 0-153.6 68.7744-153.6 153.6v153.6a51.2 51.2 0 1 0 102.4 0zM51.2 768h153.6a51.2 51.2 0 0 1 51.2 51.2v153.6a51.2 51.2 0 1 0 102.4 0V819.2c0-84.8256-68.7744-153.6-153.6-153.6H51.2a51.2 51.2 0 1 0 0 102.4z" p-id="5078"></path>
</svg>