<?xml version="1.0" standalone="no"?><!DOCTYPE svg PUBLIC "-//W3C//DTD SVG 1.1//EN" "http://www.w3.org/Graphics/SVG/1.1/DTD/svg11.dtd"><svg t="1753155017960" class="icon" viewBox="0 0 1112 1024" version="1.1" xmlns="http://www.w3.org/2000/svg" p-id="5864" xmlns:xlink="http://www.w3.org/1999/xlink" width="17.375" height="16"><path d="M123.534581 60.251831a61.004731 61.004731 0 0 0-61.767291 60.242172V782.90371a59.733799 59.733799 0 0 0 18.30142 42.703312 62.52985 62.52985 0 0 0 43.465871 17.53886h865.758811a61.004731 61.004731 0 0 0 61.76729-60.242172V120.494003a61.258918 61.258918 0 0 0-61.76729-60.242172z m0-60.242172h865.758811a122.009462 122.009462 0 0 1 123.53458 120.484344V782.90371a122.009462 122.009462 0 0 1-123.53458 120.484344H123.534581A122.009462 122.009462 0 0 1 0 782.90371V120.494003A122.009462 122.009462 0 0 1 123.534581 0.009659zM279.605018 963.630226h555.143055a30.248179 30.248179 0 1 1 0 60.242172H279.605018a30.248179 30.248179 0 1 1 0-60.242172z" fill="#1C2F5A" p-id="5865"></path><path d="M719.601642 569.641337a30.502366 30.502366 0 0 0 21.860029 9.15071h184.793498a31.010738 31.010738 0 0 0 21.860029-9.15071 31.264925 31.264925 0 0 0 8.896523-22.114215 30.756552 30.756552 0 0 0-30.756552-31.010738h-172.084179l-237.664265-240.20613a30.502366 30.502366 0 0 0-49.312158 7.879778l-114.892244 232.326352H186.572803a31.264925 31.264925 0 0 0 0 62.275663h185.047685a30.248179 30.248179 0 0 0 27.452129-17.284674l104.216416-210.720509 216.312609 218.854473z" fill="#1A77D6" p-id="5866"></path></svg>