<?xml version="1.0" standalone="no"?><!DOCTYPE svg PUBLIC "-//W3C//DTD SVG 1.1//EN" "http://www.w3.org/Graphics/SVG/1.1/DTD/svg11.dtd"><svg t="1750910682726" class="icon" viewBox="0 0 1024 1024" version="1.1" xmlns="http://www.w3.org/2000/svg" p-id="35458" xmlns:xlink="http://www.w3.org/1999/xlink" width="16" height="16"><path d="M40.925795 186.893896H981.244259v665.480284H40.925795z" fill="#00CCC6" p-id="35459"></path><path d="M843.823031 49.476944H178.342747c-75.579324 0-137.416952 61.837628-137.416952 137.416952v329.373127h281.486698l114.564008-288.947574a49.079315 49.079315 0 0 1 93.451223 7.131657l91.215099 419.438097 37.46258-82.215015a49.057937 49.057937 0 0 1 44.658372-28.731858H981.244259V186.893896c0-75.579324-61.837628-137.416952-137.421228-137.416952z m-192.965211 755.682071a49.079315 49.079315 0 0 1-92.49777-9.389161l-88.329085-385.494313-68.65717 156.058455a49.079315 49.079315 0 0 1-45.620375 30.989361H40.925795v255.050823c0 75.579324 61.837628 137.416952 137.416952 137.416952h665.480284c75.583599 0 137.421228-61.837628 137.421228-137.416952v-232.668193h-245.90537l-84.481069 185.453028z" fill="#4E6070" p-id="35460"></path></svg>