<?xml version="1.0" standalone="no"?><!DOCTYPE svg PUBLIC "-//W3C//DTD SVG 1.1//EN" "http://www.w3.org/Graphics/SVG/1.1/DTD/svg11.dtd"><svg t="1750910718209" class="icon" viewBox="0 0 1024 1024" version="1.1" xmlns="http://www.w3.org/2000/svg" p-id="37476" xmlns:xlink="http://www.w3.org/1999/xlink" width="16" height="16"><path d="M962.402462 450.914462c-91.431385-17.585231-133.356308-124.416-78.296616-199.483077l38.675692-52.736-83.554461-83.554462-51.948308 35.190154c-77.075692 52.224-182.272 6.321231-196.411077-85.681231L580.923077 0h-118.153846l-15.300923 79.576615c-17.191385 89.403077-120.221538 132.096-195.603693 81.033847L184.772923 115.140923 101.218462 198.695385l38.675692 52.736c55.059692 75.067077 13.115077 181.897846-78.296616 199.483077L0 462.769231v118.153846l64.649846 9.944615c92.022154 14.158769 137.905231 119.355077 85.681231 196.43077l-35.190154 51.928615 83.554462 83.554461 52.736-38.675692c75.067077-55.059692 181.897846-13.134769 199.483077 78.296616L462.769231 1024h118.153846l6.990769-45.469538c14.473846-94.050462 123.549538-139.244308 200.290462-82.963693l37.100307 27.214769 83.554462-83.554461-35.190154-51.928615c-52.204308-77.075692-6.321231-182.272 85.681231-196.43077L1024 580.923077v-118.153846l-61.597538-11.854769zM521.846154 610.461538a88.615385 88.615385 0 1 1 0-177.230769 88.615385 88.615385 0 0 1 0 177.230769z" fill="#C7CAC7" p-id="37477"></path><path d="M521.846154 334.769231c-103.325538 0-187.076923 83.751385-187.076923 187.076923s83.751385 187.076923 187.076923 187.076923 187.076923-83.751385 187.076923-187.076923-83.751385-187.076923-187.076923-187.076923z m0 275.692307a88.615385 88.615385 0 1 1 0-177.230769 88.615385 88.615385 0 0 1 0 177.230769z" fill="#556080" p-id="37478"></path></svg>